<svg xmlns="http://www.w3.org/2000/svg" viewBox="0 0 300 300"><defs><style>.cls-1{fill:#008b47;}.cls-2{fill:#f8cd24;}</style></defs><g id="Layer_2" data-name="Layer 2"><circle class="cls-1" cx="150" cy="150" r="150"/><path class="cls-2" d="M150,56.83c-67.67,0-92.5,24.83-92.5,92.5,0,46.18,11.56,72.41,40.4,84.41a88.1,88.1,0,0,0,13.65,4.34s36.56,8.42,47.43,3.6c7-3.1,7.49-13.63,7.49-21.86a35.7,35.7,0,0,0-35.7-35.69H112c-13,0-23.84-10.64-23.61-23.64a23.21,23.21,0,0,1,20.86-22.67,23.23,23.23,0,0,1,19.66-14.56,23.23,23.23,0,0,1,42.28,0,23.21,23.21,0,0,1,19.66,14.56,23.21,23.21,0,0,1,20.86,23.09c0,10.47-10,19.75-16.45,22.22-3.55,1.36-10.86,1.21-15.19.06a35.71,35.71,0,0,1-14.18-7,38.82,38.82,0,0,1-3-2.71,32.15,32.15,0,0,1-2.66-3,33.12,33.12,0,0,1-4.14-7.06c-.31-.72-.6-1.46-.86-2.21h4.14a5.28,5.28,0,0,0,4.06-8.66l-9.93-12a4.45,4.45,0,0,0-6.84,0l-9.93,12a5.28,5.28,0,0,0,4.06,8.66h6.22a42,42,0,0,0,1,4.94,42.54,42.54,0,0,0,3.95,9.69,43.84,43.84,0,0,0,2.88,4.45,48.71,48.71,0,0,0,20.9,16.07c3.08,1.39,8.35,2.25,12.91,2.76A51.28,51.28,0,0,0,217.74,194c12-6.15,24.76-18.77,24.76-44.64C242.5,81.66,217.67,56.83,150,56.83ZM136.85,201.5a9.53,9.53,0,1,1-9.52,9.53A9.53,9.53,0,0,1,136.85,201.5Z"/></g></svg>